<?xml version="1.0" encoding="utf-8"?>
<!-- Svg Vector Icons : http://www.onlinewebfonts.com/icon -->
<!DOCTYPE svg PUBLIC "-//W3C//DTD SVG 1.1//EN" "http://www.w3.org/Graphics/SVG/1.1/DTD/svg11.dtd">
<svg version="1.1" xmlns="http://www.w3.org/2000/svg" xmlns:xlink="http://www.w3.org/1999/xlink" x="0px" y="0px" viewBox="0 0 256 256" enable-background="new 0 0 256 256" xml:space="preserve">
<metadata> Svg Vector Icons : http://www.onlinewebfonts.com/icon </metadata>
<g><g><g><path fill="#000000" d="M135.8,90.3V73.5l-21.6-4.8c-0.7-2.3-1.7-4.5-2.8-6.6l11.9-18.7l-11.9-11.9L92.8,43.3c-2.1-1.1-4.3-2-6.6-2.8l-4.8-21.6H64.5l-4.8,21.6c-2.3,0.7-4.5,1.7-6.6,2.8L34.4,31.4L22.5,43.3L34.4,62c-1.1,2.1-2,4.3-2.8,6.6L10,73.5v16.8l21.6,4.8c0.7,2.3,1.7,4.5,2.8,6.6l-11.9,18.7l11.9,11.9l18.7-11.9c2.1,1.1,4.3,2,6.6,2.8l4.8,21.6h16.8l4.8-21.6c2.3-0.7,4.5-1.7,6.6-2.8l18.7,11.9l11.9-11.9l-11.9-18.7c1.1-2.1,2-4.3,2.8-6.6L135.8,90.3z M72.9,102.9c-11.6,0-21-9.4-21-21c0-11.6,9.4-21,21-21c11.6,0,21,9.4,21,21C93.9,93.5,84.5,102.9,72.9,102.9z M162.9,212.2l5.3-12.9L153,188.8c0.2-2,0.1-4,0-6l15.1-10.7l-5.4-12.8l-18.2,3.3c-1.3-1.5-2.7-2.9-4.2-4.2l3.1-18.2l-12.9-5.3L119.9,150c-2-0.2-4-0.1-6,0L103.3,135l-12.9,5.4l3.3,18.2c-1.5,1.3-2.9,2.7-4.2,4.2l-18.2-3.1L66,172.6l15.2,10.5c-0.2,2-0.1,4,0,6l-15.1,10.7l5.4,12.9l18.2-3.3c1.3,1.5,2.7,2.9,4.2,4.2l-3.1,18.2l12.9,5.3l10.5-15.2c2,0.2,4,0.1,6,0l10.7,15.1l12.9-5.4l-3.3-18.2c1.5-1.3,2.9-2.7,4.2-4.2L162.9,212.2z M110.5,202.1c-8.9-3.7-13.2-13.9-9.5-22.8c3.7-8.9,13.9-13.2,22.8-9.5c8.9,3.7,13.2,13.9,9.5,22.8C129.6,201.5,119.4,205.7,110.5,202.1z M246,78.5l-4.5-13.7l-19,1.8c-1.2-1.7-2.6-3.3-4-4.7l4.8-18.5l-12.9-6.6l-12.1,14.7c-2-0.3-4.1-0.5-6.2-0.5l-9.7-16.4l-13.7,4.5l1.8,19c-1.7,1.2-3.3,2.6-4.7,4l-18.5-4.8l-6.5,12.9l14.7,12.2c-0.3,2-0.5,4.1-0.5,6.2l-16.4,9.7l4.5,13.7l19-1.8c1.2,1.7,2.6,3.3,4,4.7l-4.8,18.5l12.9,6.6l12.2-14.7c2,0.3,4.1,0.5,6.2,0.5l9.7,16.4l13.7-4.5l-1.8-19c1.7-1.2,3.3-2.6,4.7-4l18.5,4.8l6.6-12.9l-14.7-12.2c0.3-2,0.5-4.1,0.5-6.2L246,78.5z M197.9,105.5c-9.5,3.1-19.7-2.1-22.7-11.6c-3.1-9.5,2.1-19.7,11.6-22.7c9.5-3.1,19.7,2.1,22.7,11.6C212.5,92.2,207.3,102.4,197.9,105.5z"/></g><g></g><g></g><g></g><g></g><g></g><g></g><g></g><g></g><g></g><g></g><g></g><g></g><g></g><g></g><g></g></g></g>
</svg>